PathFileType	4	(X/Y/Z)	./resultDataOpenSim/trcMotMarkerGrf/sub10/qtm-04-06.trc
DataRate	CameraRate	NumFrames	NumMarkers	Units	OrigDataRate	OrigDataStartFrame	OrigNumFrames
250.000000	250.000000	14	24	m	250.000000	63	497
Frame#	Time	L.Toe.Tip			R.Toe.Tip			L.Ankle.Lat			R.Ankle.Lat			L.Ankle.Med			R.Ankle.Med			L.Heel			R.Heel			L.Knee.Lat			R.Knee.Lat			L.Knee.Med			R.Knee.Med			L.Thigh.Upper			R.Thigh.Upper			L.ASIS			R.ASIS			V.Sacral			L.Acromium			R.Acromium			C7			L.Elbow			R.Elbow			L.Wrist.Lat			R.Wrist.Lat
		X1	Y1	Z1	X2	Y2	Z2	X3	Y3	Z3	X4	Y4	Z4	X5	Y5	Z5	X6	Y6	Z6	X7	Y7	Z7	X8	Y8	Z8	X9	Y9	Z9	X10	Y10	Z10	X11	Y11	Z11	X12	Y12	Z12	X13	Y13	Z13	X14	Y14	Z14	X15	Y15	Z15	X16	Y16	Z16	X17	Y17	Z17	X18	Y18	Z18	X19	Y19	Z19	X20	Y20	Z20	X21	Y21	Z21	X22	Y22	Z22	X23	Y23	Z23	X24	Y24	Z24

63	0.248	-1.3643489	0.081336136	-0.19298873	-0.73942302	0.038820248	-0.0027333359	-1.3581945	0.21930334	-0.21484091	-0.88624269	0.05299972	0.027258756	-1.3301535	0.21058193	-0.13679364	-0.86113804	0.079115519	-0.056753007	-1.3953199	0.26672529	-0.15948717	-0.93155458	0.029438787	-0.022632188	-1.0406055	0.41750445	-0.23981582	-0.84175595	0.45033216	0.060193886	-1.0205209	0.37754973	-0.1255416	-0.84028645	0.4586318	-0.068847296	-1.0021097	0.79648826	-0.25701286	-0.94570095	0.85330528	0.1226626	-0.93192053	0.90683733	-0.20275161	-0.89228306	0.93545152	0.034487503	-1.1134173	0.93520796	-0.052722482	-0.95625603	1.3988099	-0.21696313	-0.99378142	1.3831736	0.10386794	-1.0564414	1.4223679	-0.066505066	-1.0206638	1.0588233	-0.28744623	-1.1431413	1.0751681	0.12019848	-0.83729133	0.89298229	-0.26347174	-1.1216258	0.84867685	0.20287196
64	0.252	-1.35194	0.083636641	-0.19386821	-0.73940533	0.038802106	-0.0027265216	-1.3474426	0.22173176	-0.21396288	-0.88621897	0.053040331	0.027217604	-1.3192949	0.21256396	-0.13598495	-0.8610596	0.07909941	-0.05679163	-1.3855202	0.26828538	-0.15808432	-0.9315512	0.029476711	-0.022670792	-1.029361	0.41843694	-0.23945495	-0.83941518	0.45029377	0.060302646	-1.0087144	0.37891801	-0.12520186	-0.83745649	0.45882832	-0.068705431	-0.99625617	0.79756466	-0.2568402	-0.94101261	0.8536164	0.12303268	-0.92654715	0.90830911	-0.20263624	-0.88693119	0.93592728	0.035231491	-1.1081068	0.93602048	-0.052575499	-0.95103857	1.3998022	-0.21642146	-0.98793699	1.3842049	0.10450552	-1.0509588	1.4234374	-0.065727201	-1.0166657	1.0601017	-0.28706996	-1.1363241	1.0755949	0.1217187	-0.83489024	0.8926591	-0.26402962	-1.11375	0.8492643	0.20432653
65	0.256	-1.3390979	0.08579435	-0.19461582	-0.73939115	0.038787133	-0.0027094459	-1.3365073	0.22397109	-0.21310181	-0.88617417	0.05307483	0.027180679	-1.3083394	0.21448468	-0.1351782	-0.86098329	0.079084031	-0.056819007	-1.375613	0.269667	-0.15688442	-0.9315379	0.029518297	-0.022711474	-1.0180629	0.41956601	-0.23906629	-0.83723451	0.45021699	0.060440165	-0.99687522	0.38032661	-0.12488459	-0.83478755	0.45898308	-0.068505511	-0.99038293	0.79873195	-0.25652998	-0.93648523	0.85390656	0.12330915	-0.92133256	0.90980408	-0.20261444	-0.88165663	0.93646399	0.036007291	-1.1028153	0.93689625	-0.052488644	-0.94588303	1.400825	-0.2158878	-0.98213929	1.3852734	0.10511984	-1.0455318	1.4245025	-0.064975377	-1.0127149	1.0614165	-0.28670107	-1.1295363	1.0760256	0.12323551	-0.83255707	0.89238032	-0.26461004	-1.1057599	0.84988812	0.20580881
66	0.26	-1.3258871	0.087793365	-0.19524098	-0.7393839	0.038776573	-0.0026831844	-1.3254511	0.22604577	-0.21225671	-0.88610929	0.053105335	0.027150182	-1.2972856	0.21633437	-0.13438588	-0.86091663	0.07907364	-0.056834958	-1.3656308	0.27084663	-0.15581848	-0.93151983	0.029561363	-0.022751404	-1.0067162	0.4208721	-0.23866553	-0.83526564	0.45007975	0.060625843	-0.98522734	0.38177969	-0.12455928	-0.83217624	0.45909229	-0.068276798	-0.98446492	0.80000528	-0.25611492	-0.93203863	0.85419633	0.12352555	-0.91611791	0.91133675	-0.20263334	-0.87647364	0.93705967	0.036791044	-1.0975321	0.93782985	-0.052437809	-0.94079625	1.4018733	-0.2153714	-0.97638483	1.3863798	0.10571101	-1.0401552	1.4255699	-0.064247007	-1.0088109	1.0627642	-0.2863173	-1.1227745	1.0764755	0.12476949	-0.83028219	0.89214271	-0.26520278	-1.0976485	0.85054141	0.20731813
67	0.264	-1.3123463	0.089633653	-0.1957501	-0.73938855	0.038771327	-0.0026496435	-1.3143031	0.22797044	-0.21142974	-0.88603988	0.053132481	0.027124609	-1.2861391	0.21812371	-0.13362195	-0.86086607	0.0790714	-0.056841358	-1.3556453	0.27180968	-0.15490094	-0.93150487	0.029604189	-0.022790354	-0.99536523	0.42231911	-0.23826576	-0.83352365	0.44986309	0.060861099	-0.97383838	0.38330423	-0.12420595	-0.82965614	0.45914671	-0.068033875	-0.97858762	0.80138923	-0.25573915	-0.92764788	0.85450156	0.12371366	-0.91084644	0.91290192	-0.20266987	-0.87139161	0.93771519	0.037568801	-1.092245	0.93881008	-0.052408488	-0.93577334	1.4029454	-0.21486889	-0.97066579	1.3875285	0.10629005	-1.0348197	1.4266419	-0.063540392	-1.0049625	1.0641416	-0.28592665	-1.1160379	1.0769589	0.12634022	-0.82805909	0.89195322	-0.26579425	-1.0894124	0.85121725	0.20885526
68	0.268	-1.2985129	0.091323032	-0.1961543	-0.73940948	0.038771286	-0.0026089007	-1.3030607	0.2297485	-0.21062265	-0.88598319	0.053156529	0.0271002	-1.2748671	0.21988274	-0.1329072	-0.86083432	0.079078159	-0.056841517	-1.3457118	0.27256578	-0.15423593	-0.93150032	0.029645875	-0.022823966	-0.98406173	0.42386412	-0.23786448	-0.831958	0.44958309	0.061128969	-0.96270414	0.38492458	-0.12379965	-0.82740244	0.45911811	-0.067776285	-0.97284162	0.80286931	-0.25550769	-0.92331821	0.85482767	0.12389079	-0.90554303	0.91448322	-0.20272164	-0.86638948	0.93843455	0.038347354	-1.0869575	0.93982675	-0.052426468	-0.93080227	1.4040434	-0.21438026	-0.96493809	1.3887315	0.10686184	-1.0295187	1.4277185	-0.062858325	-1.0011634	1.0655479	-0.28554367	-1.1093268	1.0774738	0.12795268	-0.82588485	0.89182053	-0.26637962	-1.0810624	0.8519064	0.21041658
69	0.272	-1.2844308	0.092870017	-0.19648236	-0.73944824	0.038775335	-0.0025585388	-1.2917079	0.23137455	-0.20983306	-0.88594926	0.05317771	0.027075413	-1.2633984	0.22161929	-0.13225457	-0.86081816	0.079092529	-0.056838835	-1.3357834	0.27313805	-0.15389949	-0.93150999	0.02968593	-0.02284407	-0.97281457	0.42547639	-0.23745324	-0.83047106	0.44930002	0.06139953	-0.95179211	0.38663278	-0.12331654	-0.82549776	0.45898823	-0.067508563	-0.96722958	0.80442214	-0.25538771	-0.91901771	0.85518489	0.12408293	-0.90025507	0.91606858	-0.20278791	-0.8614247	0.93921319	0.039138457	-1.0816976	0.9408753	-0.052553675	-0.92586523	1.405167	-0.21391339	-0.95915586	1.3899868	0.10742552	-1.0242435	1.4288006	-0.062200768	-0.99737381	1.0669848	-0.28515968	-1.1026388	1.0780023	0.12959828	-0.82375819	0.89174432	-0.26696605	-1.0726395	0.85261295	0.21197925
70	0.276	-1.2701499	0.094287401	-0.19677836	-0.73950418	0.038781336	-0.0024962601	-1.2802307	0.23283145	-0.20905786	-0.88596977	0.053189554	0.027054668	-1.2516749	0.22327695	-0.13165225	-0.86081003	0.079111442	-0.056835881	-1.3256708	0.27353459	-0.15382326	-0.93153009	0.029726854	-0.022854798	-0.96159736	0.42713942	-0.2370235	-0.82898547	0.44908478	0.061632601	-0.94097352	0.38839334	-0.12276614	-0.82376977	0.45877785	-0.067251324	-0.96169707	0.80602375	-0.25526363	-0.91469664	0.85558808	0.1243227	-0.89501952	0.91765365	-0.20286296	-0.85646846	0.94003755	0.039945596	-1.0764904	0.94195231	-0.052810848	-0.92094538	1.406314	-0.21346889	-0.95335312	1.3912638	0.10798254	-1.0189831	1.4298912	-0.061562663	-0.99353536	1.068455	-0.28474956	-1.0959679	1.0785237	0.13126698	-0.8216847	0.89171749	-0.26756529	-1.0641903	0.85335393	0.21350437
71	0.28	-1.2557431	0.09558747	-0.19705747	-0.73957573	0.038787809	-0.0024228951	-1.2686159	0.23407404	-0.20830077	-0.88613453	0.05316871	0.027047768	-1.2397126	0.2247414	-0.13106741	-0.8608041	0.079131871	-0.056834049	-1.3151739	0.27374171	-0.15384385	-0.93154137	0.02977911	-0.022894154	-0.95039081	0.42884133	-0.23656544	-0.82749836	0.44895363	0.061819738	-0.93010896	0.39017594	-0.12218011	-0.82198604	0.45852682	-0.067015581	-0.95620153	0.80764967	-0.25506489	-0.91035307	0.8560346	0.12461608	-0.8898409	0.91924088	-0.20293589	-0.85153678	0.94089662	0.040757615	-1.0713177	0.94304853	-0.053107147	-0.91603608	1.4074813	-0.21303597	-0.947615	1.392527	0.10853118	-1.01373	1.4309939	-0.060939238	-0.98963253	1.0699612	-0.28430912	-1.0893056	1.0790274	0.13295629	-0.81968501	0.89173294	-0.26818392	-1.0556787	0.85413694	0.21498121
72	0.284	-1.2413379	0.096753907	-0.19722613	-0.7396588	0.038796534	-0.0023426224	-1.256839	0.23502605	-0.20757428	-0.88656052	0.053077246	0.027055288	-1.2276042	0.22590278	-0.1304749	-0.86079939	0.079153007	-0.056833311	-1.3042511	0.27374108	-0.15378506	-0.93150658	0.029861317	-0.023035926	-0.93919781	0.43057162	-0.23607265	-0.8260613	0.44886238	0.061997443	-0.9191758	0.39197694	-0.12157346	-0.82009248	0.45826219	-0.066786106	-0.95073757	0.80927699	-0.25483547	-0.90603305	0.85650858	0.12493929	-0.88467225	0.92084186	-0.20298797	-0.84669664	0.94178974	0.041541334	-1.0661363	0.94415207	-0.053313555	-0.91114164	1.4086672	-0.2126068	-0.9419844	1.3937657	0.10907258	-1.00848	1.4321081	-0.06032425	-0.98573804	1.0715047	-0.28386733	-1.0826485	1.0795205	0.13466822	-0.81778949	0.89178316	-0.26882406	-1.0469489	0.85495561	0.21646012
73	0.288	-1.2270804	0.097722634	-0.1971044	-0.73974627	0.038810553	-0.0022607041	-1.2448557	0.23562528	-0.20688773	-0.88720963	0.052905822	0.027042275	-1.2154393	0.22672304	-0.12987715	-0.8607972	0.07917602	-0.056832311	-1.2929677	0.27351131	-0.15347783	-0.93139679	0.029982319	-0.02333728	-0.92802601	0.43232815	-0.23554889	-0.82472726	0.44876831	0.062192288	-0.90818583	0.39381244	-0.12095051	-0.81817278	0.45799199	-0.066549687	-0.94530687	0.8108923	-0.25467033	-0.90177899	0.85700018	0.12526761	-0.87940313	0.92247823	-0.20298491	-0.84201223	0.94272197	0.042264156	-1.0609397	0.94525827	-0.053399175	-0.90626993	1.4098707	-0.21218122	-0.93645333	1.3949906	0.10961925	-1.0032316	1.4332294	-0.059712859	-0.98194932	1.0730828	-0.28344946	-1.0760146	1.0800194	0.13639896	-0.81601131	0.89186155	-0.26948884	-1.0378737	0.85580374	0.21800543
74	0.292	-1.2129962	0.098430373	-0.19664387	-0.73983298	0.038830167	-0.0021808681	-1.2326229	0.23587526	-0.20623297	-0.88774425	0.052722062	0.026944708	-1.2032067	0.22723509	-0.12928956	-0.86079863	0.079202523	-0.056828586	-1.2813766	0.27303719	-0.1528723	-0.93125005	0.030106241	-0.023730204	-0.91687202	0.43412241	-0.23500701	-0.82350222	0.44866196	0.062402958	-0.89710554	0.39569525	-0.12032029	-0.81635095	0.45770214	-0.066318124	-0.93986691	0.8124984	-0.25459194	-0.8976041	0.85750076	0.12559564	-0.87390288	0.92417121	-0.20288109	-0.83745623	0.94369116	0.042945299	-1.0557689	0.94636977	-0.053438842	-0.90142618	1.4110848	-0.21175668	-0.93099371	1.3962157	0.11017393	-0.99798919	1.4343559	-0.05911414	-0.97829087	1.0746883	-0.28306602	-1.0694462	1.0805357	0.13813789	-0.81432459	0.89197046	-0.27017984	-1.0285672	0.85667482	0.21961152
75	0.296	-1.1989428	0.098880687	-0.19603305	-0.73991948	0.038853532	-0.0021041711	-1.2201626	0.23583518	-0.20559661	-0.8878947	0.052613989	0.026771328	-1.190797	0.22748652	-0.12871792	-0.86080592	0.079233927	-0.056818889	-1.2695519	0.27233401	-0.15211328	-0.9311722	0.030163745	-0.024016698	-0.9057263	0.43596764	-0.2344544	-0.82233544	0.44855842	0.062632684	-0.88591786	0.39762427	-0.1196861	-0.81477095	0.45736487	-0.066113307	-0.93434573	0.81410662	-0.25452742	-0.89348918	0.85800474	0.12593847	-0.86813277	0.92592495	-0.20264764	-0.83291831	0.94468436	0.043650045	-1.0506774	0.94748504	-0.053528653	-0.89661023	1.4123013	-0.21133085	-0.92557728	1.3974475	0.11072327	-0.99275609	1.4354906	-0.058542225	-0.97472004	1.0763137	-0.28273673	-1.0629779	1.0810635	0.13987583	-0.81267634	0.89211959	-0.27088935	-1.0193123	0.85755555	0.2212031
76	0.3	-1.1847615	0.099124104	-0.1954731	-0.74000865	0.03887914	-0.0020295214	-1.2075847	0.23556733	-0.20498116	-0.88792646	0.052584193	0.02666781	-1.1781476	0.22750601	-0.12815572	-0.86082279	0.079271159	-0.056800543	-1.2576023	0.27142881	-0.15138113	-0.93121454	0.030140124	-0.024087297	-0.89458921	0.43786418	-0.23388418	-0.82120421	0.44848092	0.06288533	-0.87465694	0.39959759	-0.1190416	-0.81350841	0.45697828	-0.065937029	-0.92871762	0.81572251	-0.2544031	-0.8893617	0.85851984	0.1263243	-0.86222919	0.92771203	-0.20230169	-0.82831585	0.94568829	0.044421559	-1.0456835	0.9485953	-0.05370352	-0.89181748	1.4135178	-0.21090968	-0.92019905	1.3986814	0.11126231	-0.98753102	1.4366357	-0.057996371	-0.97118726	1.0779561	-0.28245778	-1.0566138	1.0815818	0.14159216	-0.8110113	0.892313	-0.27160017	-1.0102585	0.85843523	0.22272243
